<svg id="visual" viewBox="0 0 1920 1080" width="1920" height="1080" xmlns="http://www.w3.org/2000/svg" xmlns:xlink="http://www.w3.org/1999/xlink" version="1.1"><rect width="1920" height="1080" fill="#001829"></rect><g><g transform="translate(20 345)"><path d="M0 -288.1L155.7 -242.3L262 -119.7L285.1 41L217.7 188.6L81.2 276.4L-81.2 276.4L-217.7 188.6L-285.1 41L-262 -119.7L-155.7 -242.3Z" fill="#297EA6"></path></g><g transform="translate(1094 916)"><path d="M0 -257L138.9 -216.2L233.8 -106.8L254.4 36.6L194.2 168.3L72.4 246.6L-72.4 246.6L-194.2 168.3L-254.4 36.6L-233.8 -106.8L-138.9 -216.2Z" fill="#297EA6"></path></g><g transform="translate(1444 221)"><path d="M0 -267L144.4 -224.6L242.9 -110.9L264.3 38L201.8 174.8L75.2 256.2L-75.2 256.2L-201.8 174.8L-264.3 38L-242.9 -110.9L-144.4 -224.6Z" fill="#297EA6"></path></g><g transform="translate(271 885)"><path d="M0 -204L110.3 -171.6L185.6 -84.7L201.9 29L154.2 133.6L57.5 195.7L-57.5 195.7L-154.2 133.6L-201.9 29L-185.6 -84.7L-110.3 -171.6Z" fill="#297EA6"></path></g><g transform="translate(591 55)"><path d="M0 -169L91.4 -142.2L153.7 -70.2L167.3 24.1L127.7 110.7L47.6 162.2L-47.6 162.2L-127.7 110.7L-167.3 24.1L-153.7 -70.2L-91.4 -142.2Z" fill="#297EA6"></path></g><g transform="translate(1910 957)"><path d="M0 -201L108.7 -169.1L182.8 -83.5L199 28.6L151.9 131.6L56.6 192.9L-56.6 192.9L-151.9 131.6L-199 28.6L-182.8 -83.5L-108.7 -169.1Z" fill="#297EA6"></path></g></g></svg>