<svg id="visual" viewBox="0 0 1920 1080" width="1920" height="1080" xmlns="http://www.w3.org/2000/svg" xmlns:xlink="http://www.w3.org/1999/xlink" version="1.1"><rect x="0" y="0" width="1920" height="1080" fill="#001220"></rect><defs><linearGradient id="grad1_0" x1="43.8%" y1="0%" x2="100%" y2="100%"><stop offset="14.444444444444446%" stop-color="#001220" stop-opacity="1"></stop><stop offset="85.55555555555554%" stop-color="#001220" stop-opacity="1"></stop></linearGradient></defs><defs><linearGradient id="grad2_0" x1="0%" y1="0%" x2="56.3%" y2="100%"><stop offset="14.444444444444446%" stop-color="#001220" stop-opacity="1"></stop><stop offset="85.55555555555554%" stop-color="#001220" stop-opacity="1"></stop></linearGradient></defs><g transform="translate(1920, 0)"><path d="M0 972C-95.5 883.9 -191 795.8 -315.7 762.2C-440.5 728.6 -594.5 749.4 -687.3 687.3C-780.1 625.2 -811.8 480.1 -849 351.7C-886.3 223.3 -929.1 111.7 -972 0L0 0Z" fill="#FBAE3C"></path></g><g transform="translate(0, 1080)"><path d="M0 -972C140.1 -970.5 280.2 -969 372 -898C463.8 -827 507.3 -686.4 593.3 -593.3C679.2 -500.1 807.5 -454.5 877.7 -363.5C947.9 -272.6 959.9 -136.3 972 0L0 0Z" fill="#FBAE3C"></path></g></svg>